<?xml version="1.0" encoding="utf-8"?>
<!-- Generator: Adobe Illustrator 15.1.0, SVG Export Plug-In . SVG Version: 6.00 Build 0)  -->
<!DOCTYPE svg PUBLIC "-//W3C//DTD SVG 1.1//EN" "http://www.w3.org/Graphics/SVG/1.1/DTD/svg11.dtd">
<svg version="1.1" id="Layer_1" xmlns="http://www.w3.org/2000/svg" xmlns:xlink="http://www.w3.org/1999/xlink" x="0px" y="0px"
	 width="598.609px" height="598.614px" viewBox="111.809 11.805 598.609 598.614"
	 enable-background="new 111.809 11.805 598.609 598.614" xml:space="preserve">
<g id="zoom-out_2_">
	<g>
		<g>
			<path fill="#007DC3" d="M411.111,11.805c-165.298,0-299.302,134.009-299.302,299.307c0,165.302,134.004,299.307,299.302,299.307
				c165.307,0,299.307-134,299.307-299.307C710.418,145.813,576.413,11.805,411.111,11.805z M411.111,529.902
				c-120.832,0-218.787-97.956-218.787-218.791c0-120.836,97.956-218.792,218.787-218.792c120.835,0,218.785,97.956,218.785,218.792
				C629.896,431.946,531.946,529.902,411.111,529.902z"/>
		</g>
	</g>
</g>
<g>
	<path fill="#007DC3" d="M434.639,233.208h-47.051v-42.819h47.051V233.208z M387.588,254.374h47.051v177.461h-47.051V254.374z"/>
</g>
</svg>
