<?xml version="1.0" encoding="utf-8"?>
<!-- Generator: Adobe Illustrator 15.1.0, SVG Export Plug-In . SVG Version: 6.00 Build 0)  -->
<!DOCTYPE svg PUBLIC "-//W3C//DTD SVG 1.1//EN" "http://www.w3.org/Graphics/SVG/1.1/DTD/svg11.dtd">
<svg version="1.1" id="Layer_1" xmlns="http://www.w3.org/2000/svg" xmlns:xlink="http://www.w3.org/1999/xlink" x="0px" y="0px"
	 width="598.604px" height="598.604px" viewBox="111.809 11.809 598.604 598.604"
	 enable-background="new 111.809 11.809 598.604 598.604" xml:space="preserve">
<g id="speed_1_">
	<g id="speed_2_">
		<g>
			<g>
				<g>
					<path fill="#007DC3" d="M411.111,11.809c-165.293,0-299.302,134.004-299.302,299.302
						c0,165.302,134.004,299.302,299.302,299.302c165.307,0,299.302-133.995,299.302-299.302
						C710.413,145.813,576.418,11.809,411.111,11.809z M411.111,529.902c-120.836,0-218.787-97.956-218.787-218.791
						c0-120.836,97.951-218.787,218.787-218.787c120.835,0,218.782,97.951,218.782,218.787
						C629.894,431.946,531.946,529.902,411.111,529.902z"/>
				</g>
			</g>
			<path fill="#007DC3" d="M320.809,216.484c30.546,21.778,133.902,31.911,128.875,96.658
				c-2.622,33.844-27.729,46.871-57.991,38.662C341.587,338.227,344.827,256.875,320.809,216.484z"/>
		</g>
		<g>
			<g>
				<path fill="#007DC3" d="M490.223,195.707c11.404,6.524,24.227,19.156,34.009,28.302l45.564-36.52
					c-12.925-17.026-28.116-31.44-44.854-43.151L490.223,195.707z M453.094,112.818l-12.77,63.791
					c15.374,3.355,30.245,8.715,44.209,16.013l35.08-51.92C499.169,127.364,476.582,118.013,453.094,112.818z M235.689,275.92
					l-23.662-4.729c-4.476,23.245-4.858,47.271-0.942,70.933l6.604-1.279C219.524,318.458,225.609,296.396,235.689,275.92z
					 M212.213,348.462c1.374,6.96,3.271,13.85,5.409,20.689c-0.582-7.218-0.649-14.458-0.333-21.681L212.213,348.462z
					 M277.387,220.729l-34.92-23.596c-13.907,20.751-23.671,43.769-29.093,67.751l25.382,5.084
					C248.502,251.867,261.431,235.146,277.387,220.729z M434.014,175.311l12.769-63.8c-22.765-4.285-46.267-4.645-69.44-0.894
					l12.058,62.271C404.409,171.862,419.409,172.68,434.014,175.311z M299.28,203.693c7.493-4.996,15.227-9.351,23.106-13.138
					l-29.911-44.88c-18.324,13.102-33.827,28.751-46.338,46.168l36.311,24.525C287.755,211.902,293.351,207.649,299.28,203.693z
					 M382.934,173.409l-11.938-61.693c-25.351,4.938-50.165,14.858-72.996,30.076c-0.089,0.058-0.173,0.12-0.262,0.182
					l30.596,45.898C346.036,180.138,364.453,175.324,382.934,173.409z"/>
			</g>
			<g>
				<path fill="#007DC3" d="M552.054,330.484c-0.444,13.134-2.432,26.271-5.965,39.195L596.48,397
					c9.009-19.391,14.671-39.547,17.204-59.817L552.054,330.484z M608.009,258.938l-62.369,18.493
					c4.218,15.173,6.414,30.822,6.476,46.569l62.312,6.791C616.653,306.48,614.378,282.129,608.009,258.938z M543.822,271.245
					l62.396-18.494c-6.84-22.133-17.507-43.08-31.64-61.817l-49.444,39.733C533.054,243.471,539.338,257.111,543.822,271.245z"/>
			</g>
		</g>
	</g>
</g>
</svg>
