<?xml version="1.0" encoding="utf-8"?>
<!-- Generator: Adobe Illustrator 15.1.0, SVG Export Plug-In . SVG Version: 6.00 Build 0)  -->
<!DOCTYPE svg PUBLIC "-//W3C//DTD SVG 1.1//EN" "http://www.w3.org/Graphics/SVG/1.1/DTD/svg11.dtd">
<svg version="1.1" id="Layer_1" xmlns="http://www.w3.org/2000/svg" xmlns:xlink="http://www.w3.org/1999/xlink" x="0px" y="0px"
	 width="30px" height="70px" viewBox="-3.083 -42.936 30 70" enable-background="new -3.083 -42.936 30 70" xml:space="preserve">
<path fill="#007DC3" d="M11.916-42.936c-8.286,0-15,6.713-15,15c0,8.288,6.713,15,15,15c8.288,0,15-6.712,15-15
	C26.916-36.223,20.204-42.936,11.916-42.936z M8.166-35.436l11.251,7.5l-11.251,7.5V-35.436z"/>
<path fill="#007DC3" d="M11.916-2.936c-8.287,0-15,6.712-15,15c0,8.287,6.712,15,15,15c8.289,0,15-6.713,15-15
	C26.916,3.777,20.205-2.936,11.916-2.936z M10.276,18.001H5.745V6.128h4.531V18.001z M18.091,18.001h-4.534V6.128h4.534V18.001z"/>
</svg>
