<?xml version="1.0" encoding="UTF-8" standalone="no"?>
<!-- Created with Inkscape (http://www.inkscape.org/) -->

<svg
   xmlns:dc="http://purl.org/dc/elements/1.1/"
   xmlns:cc="http://creativecommons.org/ns#"
   xmlns:rdf="http://www.w3.org/1999/02/22-rdf-syntax-ns#"
   xmlns:svg="http://www.w3.org/2000/svg"
   xmlns="http://www.w3.org/2000/svg"
   version="1.1"
   width="598.604"
   height="598.604"
   viewBox="111.809 11.809 598.604 598.604"
   id="Layer_1"
   xml:space="preserve"><metadata
     id="metadata3097"><rdf:RDF><cc:Work
         rdf:about=""><dc:format>image/svg+xml</dc:format><dc:type
           rdf:resource="http://purl.org/dc/dcmitype/StillImage" /><dc:title></dc:title></cc:Work></rdf:RDF></metadata><defs
     id="defs3095" /><g
     id="speed_1_"><g
       id="g3073"
       style="fill:#f9f9f9"><g
         id="g3075"
         style="fill:#f9f9f9"><g
           id="g3077"
           style="fill:#f9f9f9"><path
             d="m 411.111,11.809 c -165.293,0 -299.302,134.004 -299.302,299.302 0,165.302 134.004,299.302 299.302,299.302 165.307,0 299.302,-133.995 299.302,-299.302 0,-165.298 -133.995,-299.302 -299.302,-299.302 z m 0,518.093 c -120.836,0 -218.787,-97.956 -218.787,-218.791 0,-120.836 97.951,-218.787 218.787,-218.787 120.835,0 218.782,97.951 218.782,218.787 10e-4,120.835 -97.947,218.791 -218.782,218.791 z"
             id="path3079"
             style="fill:#f9f9f9" /></g></g><path
         d="m 320.809,216.484 c 30.546,21.778 133.902,31.911 128.875,96.658 -2.622,33.844 -27.729,46.871 -57.991,38.662 -50.106,-13.577 -46.866,-94.929 -70.884,-135.32 z"
         id="path3081"
         style="fill:#f9f9f9" /></g><g
       id="g3083"
       style="fill:#f9f9f9"><g
         id="g3085"
         style="fill:#f9f9f9"><path
           d="m 490.223,195.707 c 11.404,6.524 24.227,19.156 34.009,28.302 l 45.564,-36.52 c -12.925,-17.026 -28.116,-31.44 -44.854,-43.151 l -34.719,51.369 z m -37.129,-82.889 -12.77,63.791 c 15.374,3.355 30.245,8.715 44.209,16.013 l 35.08,-51.92 C 499.169,127.364 476.582,118.013 453.094,112.818 z M 235.689,275.92 212.027,271.191 c -4.476,23.245 -4.858,47.271 -0.942,70.933 l 6.604,-1.279 c 1.835,-22.387 7.92,-44.449 18,-64.925 z m -23.476,72.542 c 1.374,6.96 3.271,13.85 5.409,20.689 -0.582,-7.218 -0.649,-14.458 -0.333,-21.681 l -5.076,0.992 z m 65.174,-127.733 -34.92,-23.596 c -13.907,20.751 -23.671,43.769 -29.093,67.751 l 25.382,5.084 c 9.746,-18.101 22.675,-34.822 38.631,-49.239 z m 156.627,-45.418 12.769,-63.8 c -22.765,-4.285 -46.267,-4.645 -69.44,-0.894 l 12.058,62.271 c 15.008,-1.026 30.008,-0.208 44.613,2.423 z M 299.28,203.693 c 7.493,-4.996 15.227,-9.351 23.106,-13.138 l -29.911,-44.88 c -18.324,13.102 -33.827,28.751 -46.338,46.168 l 36.311,24.525 c 5.307,-4.466 10.903,-8.719 16.832,-12.675 z m 83.654,-30.284 -11.938,-61.693 c -25.351,4.938 -50.165,14.858 -72.996,30.076 -0.089,0.058 -0.173,0.12 -0.262,0.182 l 30.596,45.898 c 17.702,-7.734 36.119,-12.548 54.6,-14.463 z"
           id="path3087"
           style="fill:#f9f9f9" /></g><g
         id="g3089"
         style="fill:#f9f9f9"><path
           d="m 552.054,330.484 c -0.444,13.134 -2.432,26.271 -5.965,39.195 L 596.48,397 c 9.009,-19.391 14.671,-39.547 17.204,-59.817 l -61.63,-6.699 z m 55.955,-71.546 -62.369,18.493 c 4.218,15.173 6.414,30.822 6.476,46.569 l 62.312,6.791 c 2.225,-24.311 -0.05,-48.662 -6.419,-71.853 z m -64.187,12.307 62.396,-18.494 c -6.84,-22.133 -17.507,-43.08 -31.64,-61.817 l -49.444,39.733 c 7.92,12.804 14.204,26.444 18.688,40.578 z"
           id="path3091"
           style="fill:#f9f9f9" /></g></g></g></svg>