<?xml version="1.0" encoding="utf-8"?>
<!-- Generator: Adobe Illustrator 15.1.0, SVG Export Plug-In . SVG Version: 6.00 Build 0)  -->
<!DOCTYPE svg PUBLIC "-//W3C//DTD SVG 1.1//EN" "http://www.w3.org/Graphics/SVG/1.1/DTD/svg11.dtd">
<svg version="1.1" id="Layer_1" xmlns="http://www.w3.org/2000/svg" xmlns:xlink="http://www.w3.org/1999/xlink" x="0px" y="0px"
	 width="598.609px" height="598.613px" viewBox="111.809 11.805 598.609 598.613"
	 enable-background="new 111.809 11.805 598.609 598.613" xml:space="preserve">
<g id="about">
	<g>
		<g>
			<path fill="#007DC3" d="M411.111,11.805c-165.298,0-299.302,134.004-299.302,299.307c0,165.315,134.004,299.307,299.302,299.307
				c165.307,0,299.307-133.991,299.307-299.307C710.418,145.809,576.413,11.805,411.111,11.805z M411.111,529.897
				c-120.831,0-218.787-97.951-218.787-218.786c0-120.836,97.956-218.782,218.787-218.782c120.835,0,218.786,97.946,218.786,218.782
				C629.897,431.946,531.946,529.897,411.111,529.897z"/>
		</g>
	</g>
	<g>
		<path fill="#007DC3" d="M327.618,254.507c0-10.583,3.396-21.289,10.182-32.151c6.792-10.849,16.703-19.827,29.725-26.951
			c13.027-7.125,28.218-10.693,45.591-10.693c16.134,0,30.378,2.982,42.742,8.938c12.36,5.964,21.911,14.049,28.645,24.302
			c6.738,10.244,10.103,21.364,10.103,33.387c0,9.467-1.929,17.76-5.765,24.884c-3.844,7.133-8.413,13.276-13.697,18.454
			c-5.285,5.173-14.773,13.884-28.463,26.129c-3.795,3.453-6.822,6.484-9.115,9.106c-2.275,2.613-3.978,5-5.08,7.187
			c-1.12,2.16-1.978,4.343-2.596,6.502c-0.617,2.178-1.537,5.991-2.76,11.44c-2.111,11.578-8.733,17.369-19.866,17.369
			c-5.792,0-10.658-1.885-14.614-5.676c-3.951-3.796-5.929-9.409-5.929-16.867c0-9.351,1.449-17.457,4.347-24.307
			c2.897-6.849,6.733-12.862,11.524-18.026c4.787-5.178,11.245-11.329,19.378-18.453c7.12-6.231,12.267-10.934,15.436-14.116
			c3.178-3.169,5.858-6.698,8.022-10.604c2.178-3.893,3.253-8.115,3.253-12.684c0-8.92-3.307-16.422-9.938-22.542
			c-6.622-6.133-15.164-9.182-25.622-9.182c-12.253,0-21.267,3.08-27.058,9.253c-5.792,6.187-10.685,15.284-14.693,27.315
			c-3.796,12.573-10.974,18.867-21.542,18.867c-6.235,0-11.498-2.205-15.782-6.596S327.618,259.626,327.618,254.507z
			 M409.103,437.516c-6.787,0-12.716-2.187-17.783-6.587c-5.066-4.399-7.595-10.556-7.595-18.453c0-7.005,2.449-12.906,7.342-17.688
			c4.902-4.792,10.911-7.188,18.036-7.188c7.026,0,12.911,2.396,17.711,7.188c4.773,4.782,7.169,10.684,7.169,17.688
			c0,7.787-2.507,13.925-7.507,18.378C421.458,435.284,415.667,437.516,409.103,437.516z"/>
	</g>
</g>
</svg>
