<?xml version="1.0" encoding="utf-8"?>
<!-- Generator: Adobe Illustrator 15.1.0, SVG Export Plug-In . SVG Version: 6.00 Build 0)  -->
<!DOCTYPE svg PUBLIC "-//W3C//DTD SVG 1.1//EN" "http://www.w3.org/Graphics/SVG/1.1/DTD/svg11.dtd">
<svg version="1.1" id="Layer_1" xmlns="http://www.w3.org/2000/svg" xmlns:xlink="http://www.w3.org/1999/xlink" x="0px" y="0px"
	 width="598.609px" height="598.596px" viewBox="111.809 11.813 598.609 598.596"
	 enable-background="new 111.809 11.813 598.609 598.596" xml:space="preserve">
<g id="zoom-in">
	<g>
		<g>
			<path fill="#007DC3" d="M411.111,11.813c-165.293,0-299.302,133.996-299.302,299.293c0,165.312,134.004,299.303,299.302,299.303
				c165.307,0,299.307-133.991,299.307-299.303C710.418,145.809,576.413,11.813,411.111,11.813z M411.111,529.897
				c-120.831,0-218.787-97.951-218.787-218.791c0-120.835,97.956-218.782,218.787-218.782c120.835,0,218.786,97.947,218.786,218.782
				C629.897,431.946,531.946,529.897,411.111,529.897z"/>
		</g>
	</g>
	<g>
		<path fill="#007DC3" d="M435.876,410.364H385.96V336.64h-74.098v-50.688h74.098v-74.089h49.916v74.089h74.479v50.688h-74.479
			V410.364z"/>
	</g>
</g>
</svg>
